<?xml version="1.0" encoding="UTF-8"?>
<svg id="Layer_2" data-name="Layer 2" xmlns="http://www.w3.org/2000/svg" viewBox="0 0 330.85 107.51">
  <defs>
    <style>
      .cls-1 {
        fill: #015746;
      }
    </style>
  </defs>
  <g id="Layer_1-2" data-name="Layer 1">
    <g>
      <g>
        <polygon class="cls-1" points="50.41 53.02 50.41 53.02 50.41 53.02 50.41 53.02"/>
        <polygon class="cls-1" points="20.68 66.01 41.09 83.03 41.09 60.83 47.9 55.12 49.6 53.71 42.7 48.77 20.68 66.01"/>
        <polygon class="cls-1" points="19.37 67.73 19.12 72.44 38.89 89.22 41.09 89.22 41.09 85.92 20.01 68.26 19.37 67.73"/>
        <path class="cls-1" d="M78.52,2.38l-1.12-.14C52.91-.79,28.14-.74,3.67,2.38c-2.03,0-3.67,1.64-3.67,3.67v58.07c0,7.68,3.33,14.92,10.16,22.15,6.21,6.56,15.56,13.31,28.58,20.63.71.4,1.52.62,2.34.62s1.63-.21,2.35-.62c13.02-7.32,22.37-14.06,28.58-20.63,6.84-7.23,10.16-14.47,10.16-22.15V6.42c0-2.03-1.65-3.84-3.67-4.04ZM31.55,27.64h1.99l1.05,5.94,5.94,1.05v1.99l-5.94,1.05-1.05,5.94h-1.99l-1.05-5.94-5.94-1.05v-1.99l5.94-1.05,1.05-5.94ZM6.7,18.98l7.9-1.41,1.44-7.93h2.51l1.39,7.93,7.95,1.41v2.51l-7.95,1.41-1.39,7.93h-2.51l-1.44-7.93-7.9-1.41v-2.51ZM7.81,49.68v-2.54l6.88-.91.91-6.88h2.54l.91,6.79,6.88,1v2.54l-6.87.91-.65,6.88h-3.07s-.65-6.88-.65-6.88l-6.87-.91ZM71.74,68.57l-.58,1.29-23.12,19.87-4.19,3.61h-6.45l-23.84-19.54v-1.6l3.42-2.7.44-4.04v-.1s24.74-19.35,24.74-19.35l.51-.39,8.91,6.41,18-15.07,2.16.49v31.11Z"/>
      </g>
      <g>
        <path class="cls-1" d="M107.12,43.74V12.25h6.46v25.71h13.15v5.78h-19.61Z"/>
        <path class="cls-1" d="M131.83,43.74V12.25h6.46v31.49h-6.46Z"/>
        <path class="cls-1" d="M145.79,43.74V12.25h9.44l7.77,22.18h-1.17l7.77-22.18h9.44v31.49h-6.46v-23.9l.59.09-7.59,21.01h-6.28l-7.63-21.01.59-.09v23.9h-6.46Z"/>
        <path class="cls-1" d="M186.54,43.74V12.25h6.46v31.49h-6.46Z"/>
        <path class="cls-1" d="M207.55,43.74v-25.71h-9.49v-5.78h25.48v5.78h-9.44v25.71h-6.55Z"/>
        <path class="cls-1" d="M228.65,43.74V12.25h6.46v25.71h13.15v5.78h-19.61Z"/>
        <path class="cls-1" d="M253.36,43.74V12.25h21.05v5.78h-14.59v6.64h13.73v5.78h-13.73v7.5h14.59v5.78h-21.05Z"/>
        <path class="cls-1" d="M291.72,44.37c-3.43,0-6.24-.89-8.43-2.67-2.18-1.78-3.52-4.14-4-7.09l6.32-1.58c.33,1.87,1.05,3.27,2.17,4.2,1.11.93,2.5,1.4,4.16,1.4.84,0,1.61-.14,2.3-.43.69-.29,1.23-.7,1.62-1.24.39-.54.59-1.19.59-1.94,0-.69-.2-1.3-.61-1.83-.41-.53-1.05-1.02-1.92-1.47-.88-.45-1.99-.93-3.34-1.45-2.05-.81-3.75-1.68-5.11-2.6-1.36-.92-2.36-1.98-3-3.19-.65-1.2-.97-2.6-.97-4.2,0-1.72.42-3.24,1.26-4.56.84-1.32,2.03-2.36,3.55-3.12,1.52-.75,3.29-1.13,5.31-1.13,2.17,0,4.08.5,5.74,1.49,1.66.99,3,2.48,4.02,4.47l-5.15,3.12c-.6-1.08-1.31-1.91-2.12-2.48-.81-.57-1.72-.86-2.71-.86-.63,0-1.21.12-1.72.36-.51.24-.93.59-1.24,1.04s-.47.96-.47,1.54c0,.6.18,1.15.54,1.65.36.5.99.99,1.88,1.47.89.48,2.07,1.01,3.55,1.58,1.99.72,3.64,1.53,4.95,2.42,1.31.89,2.3,1.92,2.98,3.1.68,1.17,1.02,2.59,1.02,4.25,0,1.9-.47,3.58-1.4,5.06-.93,1.48-2.24,2.63-3.91,3.46s-3.62,1.24-5.85,1.24Z"/>
        <path class="cls-1" d="M319.69,44.37c-3.43,0-6.24-.89-8.43-2.67-2.18-1.78-3.52-4.14-4-7.09l6.33-1.58c.33,1.87,1.05,3.27,2.17,4.2,1.11.93,2.5,1.4,4.16,1.4.84,0,1.61-.14,2.3-.43.69-.29,1.23-.7,1.63-1.24.39-.54.59-1.19.59-1.94,0-.69-.2-1.3-.61-1.83-.41-.53-1.05-1.02-1.92-1.47-.87-.45-1.99-.93-3.34-1.45-2.05-.81-3.75-1.68-5.1-2.6-1.36-.92-2.36-1.98-3-3.19-.65-1.2-.97-2.6-.97-4.2,0-1.72.42-3.24,1.27-4.56.84-1.32,2.03-2.36,3.55-3.12,1.52-.75,3.29-1.13,5.31-1.13,2.17,0,4.08.5,5.74,1.49,1.66.99,3,2.48,4.02,4.47l-5.15,3.12c-.6-1.08-1.31-1.91-2.12-2.48-.81-.57-1.72-.86-2.71-.86-.63,0-1.21.12-1.72.36-.51.24-.93.59-1.24,1.04s-.47.96-.47,1.54c0,.6.18,1.15.54,1.65.36.5.99.99,1.88,1.47.89.48,2.07,1.01,3.55,1.58,1.99.72,3.64,1.53,4.95,2.42,1.31.89,2.3,1.92,2.98,3.1.68,1.17,1.02,2.59,1.02,4.25,0,1.9-.47,3.58-1.4,5.06-.93,1.48-2.24,2.63-3.91,3.46s-3.62,1.24-5.85,1.24Z"/>
        <path class="cls-1" d="M107.03,81.91v-25.64h3.75v22.29h11.29v3.35h-15.05Z"/>
        <path class="cls-1" d="M133.08,81.91v-25.64h16.96v3.35h-13.21v7.5h12.1v3.35h-12.1v8.09h13.21v3.35h-16.96Z"/>
        <path class="cls-1" d="M160,81.91l9.97-25.64h2.91l9.93,25.64h-4.08l-7.28-20.2-7.32,20.2h-4.12ZM165.89,76.2l1.14-3.35h8.76l1.25,3.35h-11.15Z"/>
        <path class="cls-1" d="M193.85,81.91v-25.64h7.91c2.01,0,3.65.29,4.91.88,1.26.59,2.19,1.43,2.8,2.52.6,1.09.9,2.39.9,3.88,0,2.21-.63,3.94-1.89,5.19-1.26,1.25-3.08,1.97-5.46,2.17-.42.02-.9.04-1.43.04h-3.97v10.96h-3.75ZM197.6,67.63h3.79c1.03,0,1.93-.13,2.7-.39.77-.26,1.39-.68,1.86-1.27.46-.59.7-1.39.7-2.39s-.23-1.8-.7-2.37c-.47-.58-1.09-.99-1.88-1.23s-1.68-.37-2.69-.37h-3.79v8.02ZM208.05,81.91l-6.58-11.4,3.83-.48,7.06,11.88h-4.3Z"/>
        <path class="cls-1" d="M223.58,81.91v-25.64h3.9l12.77,20.79h-.88v-20.79h3.72v25.64h-3.97l-12.66-20.82h.88v20.82h-3.75Z"/>
        <path class="cls-1" d="M256.32,81.91v-25.64h3.75v25.64h-3.75Z"/>
        <path class="cls-1" d="M273.31,81.91v-25.64h3.9l12.77,20.79h-.88v-20.79h3.72v25.64h-3.97l-12.66-20.82h.88v20.82h-3.75Z"/>
        <path class="cls-1" d="M316.76,82.38c-2.31,0-4.34-.55-6.11-1.66-1.77-1.1-3.15-2.66-4.16-4.67-1.01-2.01-1.51-4.34-1.51-6.99s.5-4.97,1.51-6.97c1.01-2,2.41-3.55,4.21-4.65s3.89-1.66,6.27-1.66c2.62,0,4.9.65,6.82,1.95,1.92,1.3,3.3,3.1,4.14,5.41l-3.5,1.29c-.61-1.59-1.56-2.84-2.83-3.73-1.28-.9-2.82-1.34-4.63-1.34-1.67,0-3.12.4-4.36,1.2-1.24.8-2.2,1.91-2.87,3.35-.67,1.43-1.01,3.16-1.01,5.17s.34,3.74,1.01,5.19c.67,1.45,1.63,2.57,2.87,3.37,1.24.8,2.69,1.2,4.36,1.2.86,0,1.73-.12,2.63-.35.9-.23,1.72-.65,2.48-1.25.76-.6,1.37-1.42,1.84-2.45.46-1.03.7-2.35.7-3.97v-1.73l.85,2.58h-7.28v-3.35h9.75v13.61h-3.31l-.51-4.71.62.48c-.44,1.08-1.07,1.97-1.88,2.67-.81.7-1.74,1.21-2.78,1.54-1.04.33-2.15.5-3.33.5Z"/>
      </g>
    </g>
  </g>
</svg>